<svg width="512" height="512" xmlns="http://www.w3.org/2000/svg" preserveAspectRatio="xMidYMid meet" version="1.0">
    <g>
        <title>Layer 1</title>
        <g id="svg_1" fill="#000000" transform="translate(0.000000,512.000000) scale(0.100000,-0.100000)">
            <path id="svg_2" d="m4355,4861c-258,-70 -482,-131 -498,-135c-38,-9 -67,-41 -67,-72c0,-21 38,-65 177,-206c141,-142 175,-181 163,-188c-8,-5 -94,-35 -190,-66c-274,-89 -374,-148 -455,-269c-67,-101 -88,-193 -105,-462c-16,-235 -41,-317 -127,-413c-33,-37 -69,-62 -136,-95c-104,-51 -188,-74 -397,-111c-185,-32 -277,-56 -367,-93c-154,-63 -290,-178 -339,-285c-51,-111 -51,-217 1,-381c14,-44 30,-107 35,-141c25,-157 -73,-305 -273,-410c-98,-51 -186,-79 -401,-125c-105,-23 -227,-52 -271,-66c-241,-75 -383,-189 -467,-372c-17,-36 -50,-150 -74,-255c-33,-142 -54,-212 -84,-272c-51,-105 -115,-166 -196,-189c-33,-10 -65,-24 -72,-33c-18,-23 -15,-56 8,-77c44,-40 195,19 275,108c91,100 131,196 185,439c48,220 92,314 183,395c102,89 236,141 529,204c224,48 310,75 421,130c160,79 266,179 324,305c22,48 28,77 31,154c3,87 0,106 -34,220c-47,158 -51,241 -14,315c46,96 167,187 318,242c78,29 109,36 342,78c102,19 221,46 265,60c187,61 313,160 379,298c45,94 62,176 76,387c18,272 44,355 139,444c63,58 129,89 336,155c88,28 182,62 210,76l49,24l162,-159c110,-109 168,-160 183,-160c35,0 59,17 70,52c25,78 271,1002 271,1019c0,28 -36,59 -67,58c-16,0 -239,-58 -498,-128z"/>
        </g>
    </g>
</svg>
